<?xml version="1.0" standalone="no"?>
<!DOCTYPE svg PUBLIC "-//W3C//DTD SVG 20010904//EN"
 "http://www.w3.org/TR/2001/REC-SVG-20010904/DTD/svg10.dtd">
<svg version="1.0" xmlns="http://www.w3.org/2000/svg"
 width="1080.000000pt" height="1080.000000pt" viewBox="0 0 1080.000000 1080.000000"
 preserveAspectRatio="xMidYMid meet">
<metadata>
Created by potrace 1.14, written by Peter Selinger 2001-2017
</metadata>
<g transform="translate(0.000000,1080.000000) scale(0.100000,-0.100000)"
fill="#000000" stroke="none">
<path d="M0 5400 l0 -5400 5400 0 5400 0 0 5400 0 5400 -5400 0 -5400 0 0
-5400z m5800 2975 c743 -113 1172 -459 1289 -1040 37 -183 41 -311 41 -1300 0
-601 4 -992 10 -1045 24 -197 86 -340 232 -540 50 -69 99 -143 109 -165 23
-51 24 -112 1 -147 -9 -15 -121 -116 -247 -225 -127 -109 -277 -238 -334 -288
-134 -118 -163 -135 -227 -135 -39 0 -61 6 -90 26 -65 44 -173 145 -245 227
-56 65 -210 275 -239 326 -6 11 -34 -10 -117 -87 -292 -273 -514 -404 -798
-473 -197 -48 -560 -64 -760 -34 -485 73 -833 360 -979 808 -54 166 -70 284
-71 512 0 242 14 337 75 525 169 518 575 860 1212 1021 223 56 573 108 1038
154 85 8 170 18 189 21 l34 5 -6 227 c-4 150 -11 252 -22 302 -42 199 -161
334 -350 397 -72 24 -95 27 -225 27 -168 1 -228 -12 -360 -77 -158 -77 -271
-219 -320 -402 -35 -128 -86 -187 -164 -187 -59 0 -811 82 -851 93 -51 14
-102 65 -110 112 -14 73 59 327 140 487 80 159 200 319 317 422 316 277 711
424 1268 472 99 9 460 -4 560 -19z m2537 -4590 c92 -18 157 -46 175 -77 18
-33 15 -193 -7 -298 -61 -301 -197 -560 -370 -710 -48 -42 -91 -52 -102 -24
-3 9 11 59 32 112 71 184 145 421 162 519 26 156 6 209 -95 240 -76 24 -357
23 -574 -1 -161 -18 -198 -16 -198 10 0 30 21 53 79 88 127 78 324 139 501
155 115 11 299 5 397 -14z m-5947 -126 c77 -48 313 -170 440 -229 650 -301
1320 -481 2080 -557 249 -25 856 -25 1095 0 621 65 1168 198 1723 418 67 27
137 49 155 49 64 0 105 -53 86 -110 -8 -21 -37 -49 -95 -90 -693 -493 -1770
-783 -2714 -731 -854 47 -1628 299 -2318 755 -229 151 -541 400 -564 450 -27
60 42 87 112 45z"/>
<path d="M5725 5820 c-700 -36 -1056 -296 -1091 -797 -12 -172 28 -357 101
-473 96 -152 262 -230 463 -217 325 19 600 315 686 737 22 110 38 369 34 575
-3 172 -4 180 -23 181 -11 1 -87 -2 -170 -6z"/>
</g>
</svg>
